<svg width="64" height="64" viewBox="0 0 64 64" fill="none" xmlns="http://www.w3.org/2000/svg">
<path d="M21.3334 3.87891H19.394V5.8183H21.3334V3.87891Z" fill="white"/>
<path d="M25.2123 3.87891H23.2729V5.8183H25.2123V3.87891Z" fill="white"/>
<path d="M27.1516 3.87891H25.2122V5.8183H27.1516V3.87891Z" fill="white"/>
<path d="M34.9091 3.87891H32.9697V5.8183H34.9091V3.87891Z" fill="white"/>
<path d="M36.8486 3.87891H34.9092V5.8183H36.8486V3.87891Z" fill="white"/>
<path d="M40.7275 3.87891H38.7881V5.8183H40.7275V3.87891Z" fill="white"/>
<path d="M42.6667 3.87891H40.7273V5.8183H42.6667V3.87891Z" fill="white"/>
<path d="M44.6061 3.87891H42.6667V5.8183H44.6061V3.87891Z" fill="white"/>
<path d="M21.3334 5.81812H19.394V7.75751H21.3334V5.81812Z" fill="white"/>
<path d="M27.1516 5.81812H25.2122V7.75751H27.1516V5.81812Z" fill="white"/>
<path d="M29.091 5.81812H27.1516V7.75751H29.091V5.81812Z" fill="white"/>
<path d="M32.9699 5.81812H31.0305V7.75751H32.9699V5.81812Z" fill="white"/>
<path d="M34.9091 5.81812H32.9697V7.75751H34.9091V5.81812Z" fill="white"/>
<path d="M38.788 5.81812H36.8486V7.75751H38.788V5.81812Z" fill="white"/>
<path d="M40.7275 5.81812H38.7881V7.75751H40.7275V5.81812Z" fill="white"/>
<path d="M44.6061 5.81812H42.6667V7.75751H44.6061V5.81812Z" fill="white"/>
<path d="M23.2729 7.75757H21.3335V9.69696H23.2729V7.75757Z" fill="white"/>
<path d="M31.0305 7.75757H29.0911V9.69696H31.0305V7.75757Z" fill="white"/>
<path d="M32.9699 7.75757H31.0305V9.69696H32.9699V7.75757Z" fill="white"/>
<path d="M34.9091 7.75757H32.9697V9.69696H34.9091V7.75757Z" fill="white"/>
<path d="M40.7275 7.75757H38.7881V9.69696H40.7275V7.75757Z" fill="white"/>
<path d="M44.6061 7.75757H42.6667V9.69696H44.6061V7.75757Z" fill="white"/>
<path d="M21.3334 9.69629H19.394V11.6357H21.3334V9.69629Z" fill="white"/>
<path d="M27.1516 9.69629H25.2122V11.6357H27.1516V9.69629Z" fill="white"/>
<path d="M29.091 9.69629H27.1516V11.6357H29.091V9.69629Z" fill="white"/>
<path d="M36.8486 9.69629H34.9092V11.6357H36.8486V9.69629Z" fill="white"/>
<path d="M38.788 9.69629H36.8486V11.6357H38.788V9.69629Z" fill="white"/>
<path d="M42.6667 9.69629H40.7273V11.6357H42.6667V9.69629Z" fill="white"/>
<path d="M25.2123 11.6357H23.2729V13.5751H25.2123V11.6357Z" fill="white"/>
<path d="M27.1516 11.6357H25.2122V13.5751H27.1516V11.6357Z" fill="white"/>
<path d="M31.0305 11.6357H29.0911V13.5751H31.0305V11.6357Z" fill="white"/>
<path d="M38.788 11.6357H36.8486V13.5751H38.788V11.6357Z" fill="white"/>
<path d="M42.6667 11.6357H40.7273V13.5751H42.6667V11.6357Z" fill="white"/>
<path d="M32.9699 13.575H31.0305V15.5143H32.9699V13.575Z" fill="white"/>
<path d="M42.6667 13.575H40.7273V15.5143H42.6667V13.575Z" fill="white"/>
<path d="M44.6064 13.575H42.667V15.5143H44.6064V13.575Z" fill="white"/>
<path d="M21.3334 15.5142H19.394V17.4536H21.3334V15.5142Z" fill="white"/>
<path d="M25.2123 15.5142H23.2729V17.4536H25.2123V15.5142Z" fill="white"/>
<path d="M29.091 15.5142H27.1516V17.4536H29.091V15.5142Z" fill="white"/>
<path d="M32.9699 15.5142H31.0305V17.4536H32.9699V15.5142Z" fill="white"/>
<path d="M36.8486 15.5142H34.9092V17.4536H36.8486V15.5142Z" fill="white"/>
<path d="M40.7275 15.5142H38.7881V17.4536H40.7275V15.5142Z" fill="white"/>
<path d="M44.6064 15.5142H42.667V17.4536H44.6064V15.5142Z" fill="white"/>
<path d="M21.3334 17.4553H19.394V19.3947H21.3334V17.4553Z" fill="white"/>
<path d="M25.2123 17.4553H23.2729V19.3947H25.2123V17.4553Z" fill="white"/>
<path d="M27.1516 17.4553H25.2122V19.3947H27.1516V17.4553Z" fill="white"/>
<path d="M29.091 17.4553H27.1516V19.3947H29.091V17.4553Z" fill="white"/>
<path d="M31.0305 17.4553H29.0911V19.3947H31.0305V17.4553Z" fill="white"/>
<path d="M32.9699 17.4553H31.0305V19.3947H32.9699V17.4553Z" fill="white"/>
<path d="M38.788 17.4553H36.8486V19.3947H38.788V17.4553Z" fill="white"/>
<path d="M40.7275 17.4553H38.7881V19.3947H40.7275V17.4553Z" fill="white"/>
<path d="M42.6667 17.4553H40.7273V19.3947H42.6667V17.4553Z" fill="white"/>
<path d="M5.8183 19.3948H3.87891V21.3342H5.8183V19.3948Z" fill="white"/>
<path d="M9.69721 19.3948H7.75781V21.3342H9.69721V19.3948Z" fill="white"/>
<path d="M11.6364 19.3948H9.69702V21.3342H11.6364V19.3948Z" fill="white"/>
<path d="M15.5151 19.3948H13.5757V21.3342H15.5151V19.3948Z" fill="white"/>
<path d="M17.4548 19.3948H15.5154V21.3342H17.4548V19.3948Z" fill="white"/>
<path d="M19.394 19.3948H17.4546V21.3342H19.394V19.3948Z" fill="white"/>
<path d="M23.2729 19.3948H21.3335V21.3342H23.2729V19.3948Z" fill="white"/>
<path d="M29.091 19.3948H27.1516V21.3342H29.091V19.3948Z" fill="white"/>
<path d="M31.0305 19.3948H29.0911V21.3342H31.0305V19.3948Z" fill="white"/>
<path d="M32.9699 19.3948H31.0305V21.3342H32.9699V19.3948Z" fill="white"/>
<path d="M36.8486 19.3948H34.9092V21.3342H36.8486V19.3948Z" fill="white"/>
<path d="M38.788 19.3948H36.8486V21.3342H38.788V19.3948Z" fill="white"/>
<path d="M40.7275 19.3948H38.7881V21.3342H40.7275V19.3948Z" fill="white"/>
<path d="M48.485 19.3948H46.5457V21.3342H48.485V19.3948Z" fill="white"/>
<path d="M54.3032 19.3948H52.3638V21.3342H54.3032V19.3948Z" fill="white"/>
<path d="M58.1818 19.3948H56.2424V21.3342H58.1818V19.3948Z" fill="white"/>
<path d="M60.1215 19.3948H58.1821V21.3342H60.1215V19.3948Z" fill="white"/>
<path d="M11.6364 21.334H9.69702V23.2734H11.6364V21.334Z" fill="white"/>
<path d="M13.5759 21.334H11.6365V23.2734H13.5759V21.334Z" fill="white"/>
<path d="M25.2123 21.334H23.2729V23.2734H25.2123V21.334Z" fill="white"/>
<path d="M27.1516 21.334H25.2122V23.2734H27.1516V21.334Z" fill="white"/>
<path d="M29.091 21.334H27.1516V23.2734H29.091V21.334Z" fill="white"/>
<path d="M34.9091 21.334H32.9697V23.2734H34.9091V21.334Z" fill="white"/>
<path d="M36.8486 21.334H34.9092V23.2734H36.8486V21.334Z" fill="white"/>
<path d="M42.6667 21.334H40.7273V23.2734H42.6667V21.334Z" fill="white"/>
<path d="M44.6064 21.334H42.667V23.2734H44.6064V21.334Z" fill="white"/>
<path d="M48.485 21.334H46.5457V23.2734H48.485V21.334Z" fill="white"/>
<path d="M50.4243 21.334H48.4849V23.2734H50.4243V21.334Z" fill="white"/>
<path d="M52.364 21.334H50.4246V23.2734H52.364V21.334Z" fill="white"/>
<path d="M60.1215 21.334H58.1821V23.2734H60.1215V21.334Z" fill="white"/>
<path d="M7.75751 23.2732H5.81812V25.2126H7.75751V23.2732Z" fill="white"/>
<path d="M9.69721 23.2732H7.75781V25.2126H9.69721V23.2732Z" fill="white"/>
<path d="M11.6364 23.2732H9.69702V25.2126H11.6364V23.2732Z" fill="white"/>
<path d="M17.4548 23.2732H15.5154V25.2126H17.4548V23.2732Z" fill="white"/>
<path d="M27.1516 23.2732H25.2122V25.2126H27.1516V23.2732Z" fill="white"/>
<path d="M29.091 23.2732H27.1516V25.2126H29.091V23.2732Z" fill="white"/>
<path d="M32.9699 23.2732H31.0305V25.2126H32.9699V23.2732Z" fill="white"/>
<path d="M34.9091 23.2732H32.9697V25.2126H34.9091V23.2732Z" fill="white"/>
<path d="M38.788 23.2732H36.8486V25.2126H38.788V23.2732Z" fill="white"/>
<path d="M40.7275 23.2732H38.7881V25.2126H40.7275V23.2732Z" fill="white"/>
<path d="M46.5456 23.2732H44.6062V25.2126H46.5456V23.2732Z" fill="white"/>
<path d="M50.4243 23.2732H48.4849V25.2126H50.4243V23.2732Z" fill="white"/>
<path d="M52.364 23.2732H50.4246V25.2126H52.364V23.2732Z" fill="white"/>
<path d="M56.2426 23.2732H54.3032V25.2126H56.2426V23.2732Z" fill="white"/>
<path d="M58.1818 23.2732H56.2424V25.2126H58.1818V23.2732Z" fill="white"/>
<path d="M11.6364 25.2122H9.69702V27.1516H11.6364V25.2122Z" fill="white"/>
<path d="M13.5759 25.2122H11.6365V27.1516H13.5759V25.2122Z" fill="white"/>
<path d="M15.5153 25.2122H13.5759V27.1516H15.5153V25.2122Z" fill="white"/>
<path d="M19.394 25.2122H17.4546V27.1516H19.394V25.2122Z" fill="white"/>
<path d="M23.2729 25.2122H21.3335V27.1516H23.2729V25.2122Z" fill="white"/>
<path d="M25.2123 25.2122H23.2729V27.1516H25.2123V25.2122Z" fill="white"/>
<path d="M31.0305 25.2122H29.0911V27.1516H31.0305V25.2122Z" fill="white"/>
<path d="M32.9699 25.2122H31.0305V27.1516H32.9699V25.2122Z" fill="white"/>
<path d="M34.9091 25.2122H32.9697V27.1516H34.9091V25.2122Z" fill="white"/>
<path d="M40.7275 25.2122H38.7881V27.1516H40.7275V25.2122Z" fill="white"/>
<path d="M42.6667 25.2122H40.7273V27.1516H42.6667V25.2122Z" fill="white"/>
<path d="M44.6061 25.2122H42.6667V27.1516H44.6061V25.2122Z" fill="white"/>
<path d="M48.485 25.2122H46.5457V27.1516H48.485V25.2122Z" fill="white"/>
<path d="M50.4243 25.2122H48.4849V27.1516H50.4243V25.2122Z" fill="white"/>
<path d="M52.3637 25.2122H50.4243V27.1516H52.3637V25.2122Z" fill="white"/>
<path d="M60.1213 25.2122H58.1819V27.1516H60.1213V25.2122Z" fill="white"/>
<path d="M9.69721 27.1516H7.75781V29.091H9.69721V27.1516Z" fill="white"/>
<path d="M11.6364 27.1516H9.69702V29.091H11.6364V27.1516Z" fill="white"/>
<path d="M13.5759 27.1516H11.6365V29.091H13.5759V27.1516Z" fill="white"/>
<path d="M15.5153 27.1516H13.5759V29.091H15.5153V27.1516Z" fill="white"/>
<path d="M17.4548 27.1516H15.5154V29.091H17.4548V27.1516Z" fill="white"/>
<path d="M19.394 27.1516H17.4546V29.091H19.394V27.1516Z" fill="white"/>
<path d="M21.3334 27.1516H19.394V29.091H21.3334V27.1516Z" fill="white"/>
<path d="M25.2123 27.1516H23.2729V29.091H25.2123V27.1516Z" fill="white"/>
<path d="M27.1516 27.1516H25.2122V29.091H27.1516V27.1516Z" fill="white"/>
<path d="M36.8486 27.1516H34.9092V29.091H36.8486V27.1516Z" fill="white"/>
<path d="M38.788 27.1516H36.8486V29.091H38.788V27.1516Z" fill="white"/>
<path d="M40.7275 27.1516H38.7881V29.091H40.7275V27.1516Z" fill="white"/>
<path d="M42.6667 27.1516H40.7273V29.091H42.6667V27.1516Z" fill="white"/>
<path d="M54.3032 27.1516H52.3638V29.091H54.3032V27.1516Z" fill="white"/>
<path d="M56.2426 27.1516H54.3032V29.091H56.2426V27.1516Z" fill="white"/>
<path d="M7.75775 29.0908H5.81836V31.0302H7.75775V29.0908Z" fill="white"/>
<path d="M9.69721 29.0908H7.75781V31.0302H9.69721V29.0908Z" fill="white"/>
<path d="M13.5759 29.0908H11.6365V31.0302H13.5759V29.0908Z" fill="white"/>
<path d="M15.5153 29.0908H13.5759V31.0302H15.5153V29.0908Z" fill="white"/>
<path d="M19.394 29.0908H17.4546V31.0302H19.394V29.0908Z" fill="white"/>
<path d="M23.2729 29.0908H21.3335V31.0302H23.2729V29.0908Z" fill="white"/>
<path d="M27.1516 29.0908H25.2122V31.0302H27.1516V29.0908Z" fill="white"/>
<path d="M31.0305 29.0908H29.0911V31.0302H31.0305V29.0908Z" fill="white"/>
<path d="M42.6667 29.0908H40.7273V31.0302H42.6667V29.0908Z" fill="white"/>
<path d="M48.485 29.0908H46.5457V31.0302H48.485V29.0908Z" fill="white"/>
<path d="M50.4243 29.0908H48.4849V31.0302H50.4243V29.0908Z" fill="white"/>
<path d="M56.2426 29.0908H54.3032V31.0302H56.2426V29.0908Z" fill="white"/>
<path d="M58.1818 29.0908H56.2424V31.0302H58.1818V29.0908Z" fill="white"/>
<path d="M60.1213 29.0908H58.1819V31.0302H60.1213V29.0908Z" fill="white"/>
<path d="M5.8183 31.0303H3.87891V32.9697H5.8183V31.0303Z" fill="white"/>
<path d="M7.75775 31.0303H5.81836V32.9697H7.75775V31.0303Z" fill="white"/>
<path d="M9.69721 31.0303H7.75781V32.9697H9.69721V31.0303Z" fill="white"/>
<path d="M11.6364 31.0303H9.69702V32.9697H11.6364V31.0303Z" fill="white"/>
<path d="M13.5759 31.0303H11.6365V32.9697H13.5759V31.0303Z" fill="white"/>
<path d="M15.5153 31.0303H13.5759V32.9697H15.5153V31.0303Z" fill="white"/>
<path d="M17.4548 31.0303H15.5154V32.9697H17.4548V31.0303Z" fill="white"/>
<path d="M19.394 31.0303H17.4546V32.9697H19.394V31.0303Z" fill="white"/>
<path d="M23.2729 31.0303H21.3335V32.9697H23.2729V31.0303Z" fill="white"/>
<path d="M25.2123 31.0303H23.2729V32.9697H25.2123V31.0303Z" fill="white"/>
<path d="M32.9699 31.0303H31.0305V32.9697H32.9699V31.0303Z" fill="white"/>
<path d="M38.788 31.0303H36.8486V32.9697H38.788V31.0303Z" fill="white"/>
<path d="M40.7275 31.0303H38.7881V32.9697H40.7275V31.0303Z" fill="white"/>
<path d="M42.6667 31.0303H40.7273V32.9697H42.6667V31.0303Z" fill="white"/>
<path d="M46.5456 31.0303H44.6062V32.9697H46.5456V31.0303Z" fill="white"/>
<path d="M50.4243 31.0303H48.4849V32.9697H50.4243V31.0303Z" fill="white"/>
<path d="M52.3637 31.0303H50.4243V32.9697H52.3637V31.0303Z" fill="white"/>
<path d="M56.2426 31.0303H54.3032V32.9697H56.2426V31.0303Z" fill="white"/>
<path d="M58.1818 31.0303H56.2424V32.9697H58.1818V31.0303Z" fill="white"/>
<path d="M60.1213 31.0303H58.1819V32.9697H60.1213V31.0303Z" fill="white"/>
<path d="M21.3334 32.9697H19.394V34.9091H21.3334V32.9697Z" fill="white"/>
<path d="M29.091 32.9697H27.1516V34.9091H29.091V32.9697Z" fill="white"/>
<path d="M31.0305 32.9697H29.0911V34.9091H31.0305V32.9697Z" fill="white"/>
<path d="M34.9091 32.9697H32.9697V34.9091H34.9091V32.9697Z" fill="white"/>
<path d="M40.7275 32.9697H38.7881V34.9091H40.7275V32.9697Z" fill="white"/>
<path d="M42.6667 32.9697H40.7273V34.9091H42.6667V32.9697Z" fill="white"/>
<path d="M48.485 32.9697H46.5457V34.9091H48.485V32.9697Z" fill="white"/>
<path d="M50.4243 32.9697H48.4849V34.9091H50.4243V32.9697Z" fill="white"/>
<path d="M52.3637 32.9697H50.4243V34.9091H52.3637V32.9697Z" fill="white"/>
<path d="M58.1818 32.9697H56.2424V34.9091H58.1818V32.9697Z" fill="white"/>
<path d="M5.8183 34.9092H3.87891V36.8486H5.8183V34.9092Z" fill="white"/>
<path d="M9.69721 34.9092H7.75781V36.8486H9.69721V34.9092Z" fill="white"/>
<path d="M13.5759 34.9092H11.6365V36.8486H13.5759V34.9092Z" fill="white"/>
<path d="M17.4548 34.9092H15.5154V36.8486H17.4548V34.9092Z" fill="white"/>
<path d="M19.394 34.9092H17.4546V36.8486H19.394V34.9092Z" fill="white"/>
<path d="M21.3334 34.9092H19.394V36.8486H21.3334V34.9092Z" fill="white"/>
<path d="M40.7275 34.9092H38.7881V36.8486H40.7275V34.9092Z" fill="white"/>
<path d="M46.5456 34.9092H44.6062V36.8486H46.5456V34.9092Z" fill="white"/>
<path d="M52.3637 34.9092H50.4243V36.8486H52.3637V34.9092Z" fill="white"/>
<path d="M54.3032 34.9092H52.3638V36.8486H54.3032V34.9092Z" fill="white"/>
<path d="M58.1818 34.9092H56.2424V36.8486H58.1818V34.9092Z" fill="white"/>
<path d="M11.6364 36.8484H9.69702V38.7878H11.6364V36.8484Z" fill="white"/>
<path d="M13.5759 36.8484H11.6365V38.7878H13.5759V36.8484Z" fill="white"/>
<path d="M15.5153 36.8484H13.5759V38.7878H15.5153V36.8484Z" fill="white"/>
<path d="M19.394 36.8484H17.4546V38.7878H19.394V36.8484Z" fill="white"/>
<path d="M21.3334 36.8484H19.394V38.7878H21.3334V36.8484Z" fill="white"/>
<path d="M23.2729 36.8484H21.3335V38.7878H23.2729V36.8484Z" fill="white"/>
<path d="M27.1516 36.8484H25.2122V38.7878H27.1516V36.8484Z" fill="white"/>
<path d="M31.0305 36.8484H29.0911V38.7878H31.0305V36.8484Z" fill="white"/>
<path d="M44.6061 36.8484H42.6667V38.7878H44.6061V36.8484Z" fill="white"/>
<path d="M46.5456 36.8484H44.6062V38.7878H46.5456V36.8484Z" fill="white"/>
<path d="M50.4243 36.8484H48.4849V38.7878H50.4243V36.8484Z" fill="white"/>
<path d="M54.3032 36.8484H52.3638V38.7878H54.3032V36.8484Z" fill="white"/>
<path d="M56.2426 36.8484H54.3032V38.7878H56.2426V36.8484Z" fill="white"/>
<path d="M58.1818 36.8484H56.2424V38.7878H58.1818V36.8484Z" fill="white"/>
<path d="M5.8183 38.7878H3.87891V40.7272H5.8183V38.7878Z" fill="white"/>
<path d="M11.6364 38.7878H9.69702V40.7272H11.6364V38.7878Z" fill="white"/>
<path d="M13.5759 38.7878H11.6365V40.7272H13.5759V38.7878Z" fill="white"/>
<path d="M17.4548 38.7878H15.5154V40.7272H17.4548V38.7878Z" fill="white"/>
<path d="M23.2729 38.7878H21.3335V40.7272H23.2729V38.7878Z" fill="white"/>
<path d="M27.1516 38.7878H25.2122V40.7272H27.1516V38.7878Z" fill="white"/>
<path d="M38.788 38.7878H36.8486V40.7272H38.788V38.7878Z" fill="white"/>
<path d="M44.6061 38.7878H42.6667V40.7272H44.6061V38.7878Z" fill="white"/>
<path d="M50.4243 38.7878H48.4849V40.7272H50.4243V38.7878Z" fill="white"/>
<path d="M56.2426 38.7878H54.3032V40.7272H56.2426V38.7878Z" fill="white"/>
<path d="M9.69721 40.7268H7.75781V42.6662H9.69721V40.7268Z" fill="white"/>
<path d="M13.5759 40.7268H11.6365V42.6662H13.5759V40.7268Z" fill="white"/>
<path d="M15.5151 40.7268H13.5757V42.6662H15.5151V40.7268Z" fill="white"/>
<path d="M21.3334 40.7268H19.394V42.6662H21.3334V40.7268Z" fill="white"/>
<path d="M23.2729 40.7268H21.3335V42.6662H23.2729V40.7268Z" fill="white"/>
<path d="M25.2123 40.7268H23.2729V42.6662H25.2123V40.7268Z" fill="white"/>
<path d="M34.9091 40.7268H32.9697V42.6662H34.9091V40.7268Z" fill="white"/>
<path d="M36.8486 40.7268H34.9092V42.6662H36.8486V40.7268Z" fill="white"/>
<path d="M38.788 40.7268H36.8486V42.6662H38.788V40.7268Z" fill="white"/>
<path d="M46.5456 40.7268H44.6062V42.6662H46.5456V40.7268Z" fill="white"/>
<path d="M56.2426 40.7268H54.3032V42.6662H56.2426V40.7268Z" fill="white"/>
<path d="M7.75751 42.666H5.81812V44.6054H7.75751V42.666Z" fill="white"/>
<path d="M9.69721 42.666H7.75781V44.6054H9.69721V42.666Z" fill="white"/>
<path d="M13.5759 42.666H11.6365V44.6054H13.5759V42.666Z" fill="white"/>
<path d="M15.5151 42.666H13.5757V44.6054H15.5151V42.666Z" fill="white"/>
<path d="M17.4548 42.666H15.5154V44.6054H17.4548V42.666Z" fill="white"/>
<path d="M19.394 42.666H17.4546V44.6054H19.394V42.666Z" fill="white"/>
<path d="M23.2729 42.666H21.3335V44.6054H23.2729V42.666Z" fill="white"/>
<path d="M25.2123 42.666H23.2729V44.6054H25.2123V42.666Z" fill="white"/>
<path d="M27.1516 42.666H25.2122V44.6054H27.1516V42.666Z" fill="white"/>
<path d="M29.091 42.666H27.1516V44.6054H29.091V42.666Z" fill="white"/>
<path d="M31.0305 42.666H29.0911V44.6054H31.0305V42.666Z" fill="white"/>
<path d="M34.9091 42.666H32.9697V44.6054H34.9091V42.666Z" fill="white"/>
<path d="M38.788 42.666H36.8486V44.6054H38.788V42.666Z" fill="white"/>
<path d="M40.7275 42.666H38.7881V44.6054H40.7275V42.666Z" fill="white"/>
<path d="M42.6667 42.666H40.7273V44.6054H42.6667V42.666Z" fill="white"/>
<path d="M44.6064 42.666H42.667V44.6054H44.6064V42.666Z" fill="white"/>
<path d="M46.5456 42.666H44.6062V44.6054H46.5456V42.666Z" fill="white"/>
<path d="M48.485 42.666H46.5457V44.6054H48.485V42.666Z" fill="white"/>
<path d="M50.4243 42.666H48.4849V44.6054H50.4243V42.666Z" fill="white"/>
<path d="M52.364 42.666H50.4246V44.6054H52.364V42.666Z" fill="white"/>
<path d="M54.3032 42.666H52.3638V44.6054H54.3032V42.666Z" fill="white"/>
<path d="M56.2426 42.666H54.3032V44.6054H56.2426V42.666Z" fill="white"/>
<path d="M21.3334 44.6052H19.394V46.5446H21.3334V44.6052Z" fill="white"/>
<path d="M31.0305 44.6052H29.0911V46.5446H31.0305V44.6052Z" fill="white"/>
<path d="M32.9699 44.6052H31.0305V46.5446H32.9699V44.6052Z" fill="white"/>
<path d="M34.9091 44.6052H32.9697V46.5446H34.9091V44.6052Z" fill="white"/>
<path d="M42.6667 44.6052H40.7273V46.5446H42.6667V44.6052Z" fill="white"/>
<path d="M44.6064 44.6052H42.667V46.5446H44.6064V44.6052Z" fill="white"/>
<path d="M52.364 44.6052H50.4246V46.5446H52.364V44.6052Z" fill="white"/>
<path d="M54.3032 44.6052H52.3638V46.5446H54.3032V44.6052Z" fill="white"/>
<path d="M56.2426 44.6052H54.3032V46.5446H56.2426V44.6052Z" fill="white"/>
<path d="M58.1818 44.6052H56.2424V46.5446H58.1818V44.6052Z" fill="white"/>
<path d="M60.1215 44.6052H58.1821V46.5446H60.1215V44.6052Z" fill="white"/>
<path d="M21.3334 46.5447H19.394V48.4841H21.3334V46.5447Z" fill="white"/>
<path d="M25.2123 46.5447H23.2729V48.4841H25.2123V46.5447Z" fill="white"/>
<path d="M29.091 46.5447H27.1516V48.4841H29.091V46.5447Z" fill="white"/>
<path d="M31.0305 46.5447H29.0911V48.4841H31.0305V46.5447Z" fill="white"/>
<path d="M36.8486 46.5447H34.9092V48.4841H36.8486V46.5447Z" fill="white"/>
<path d="M42.6667 46.5447H40.7273V48.4841H42.6667V46.5447Z" fill="white"/>
<path d="M44.6064 46.5447H42.667V48.4841H44.6064V46.5447Z" fill="white"/>
<path d="M48.485 46.5447H46.5457V48.4841H48.485V46.5447Z" fill="white"/>
<path d="M52.364 46.5447H50.4246V48.4841H52.364V46.5447Z" fill="white"/>
<path d="M54.3032 46.5447H52.3638V48.4841H54.3032V46.5447Z" fill="white"/>
<path d="M58.1818 46.5447H56.2424V48.4841H58.1818V46.5447Z" fill="white"/>
<path d="M21.3334 48.4858H19.394V50.4252H21.3334V48.4858Z" fill="white"/>
<path d="M23.2729 48.4858H21.3335V50.4252H23.2729V48.4858Z" fill="white"/>
<path d="M29.091 48.4858H27.1516V50.4252H29.091V48.4858Z" fill="white"/>
<path d="M36.8486 48.4858H34.9092V50.4252H36.8486V48.4858Z" fill="white"/>
<path d="M44.6064 48.4858H42.667V50.4252H44.6064V48.4858Z" fill="white"/>
<path d="M52.364 48.4858H50.4246V50.4252H52.364V48.4858Z" fill="white"/>
<path d="M54.3032 48.4858H52.3638V50.4252H54.3032V48.4858Z" fill="white"/>
<path d="M58.1818 48.4858H56.2424V50.4252H58.1818V48.4858Z" fill="white"/>
<path d="M60.1215 48.4858H58.1821V50.4252H60.1215V48.4858Z" fill="white"/>
<path d="M25.2123 50.425H23.2729V52.3644H25.2123V50.425Z" fill="white"/>
<path d="M27.1516 50.425H25.2122V52.3644H27.1516V50.425Z" fill="white"/>
<path d="M29.091 50.425H27.1516V52.3644H29.091V50.425Z" fill="white"/>
<path d="M32.9699 50.425H31.0305V52.3644H32.9699V50.425Z" fill="white"/>
<path d="M34.9091 50.425H32.9697V52.3644H34.9091V50.425Z" fill="white"/>
<path d="M38.788 50.425H36.8486V52.3644H38.788V50.425Z" fill="white"/>
<path d="M40.7275 50.425H38.7881V52.3644H40.7275V50.425Z" fill="white"/>
<path d="M44.6064 50.425H42.667V52.3644H44.6064V50.425Z" fill="white"/>
<path d="M46.5456 50.425H44.6062V52.3644H46.5456V50.425Z" fill="white"/>
<path d="M48.485 50.425H46.5457V52.3644H48.485V50.425Z" fill="white"/>
<path d="M50.4243 50.425H48.4849V52.3644H50.4243V50.425Z" fill="white"/>
<path d="M52.364 50.425H50.4246V52.3644H52.364V50.425Z" fill="white"/>
<path d="M56.2426 50.425H54.3032V52.3644H56.2426V50.425Z" fill="white"/>
<path d="M60.1215 50.425H58.1821V52.3644H60.1215V50.425Z" fill="white"/>
<path d="M21.3334 52.3643H19.394V54.3037H21.3334V52.3643Z" fill="white"/>
<path d="M23.2729 52.3643H21.3335V54.3037H23.2729V52.3643Z" fill="white"/>
<path d="M27.1516 52.3643H25.2122V54.3037H27.1516V52.3643Z" fill="white"/>
<path d="M32.9699 52.3643H31.0305V54.3037H32.9699V52.3643Z" fill="white"/>
<path d="M36.8486 52.3643H34.9092V54.3037H36.8486V52.3643Z" fill="white"/>
<path d="M42.6667 52.3643H40.7273V54.3037H42.6667V52.3643Z" fill="white"/>
<path d="M46.5456 52.3643H44.6062V54.3037H46.5456V52.3643Z" fill="white"/>
<path d="M52.364 52.3643H50.4246V54.3037H52.364V52.3643Z" fill="white"/>
<path d="M54.3032 52.3643H52.3638V54.3037H54.3032V52.3643Z" fill="white"/>
<path d="M58.1818 52.3643H56.2424V54.3037H58.1818V52.3643Z" fill="white"/>
<path d="M21.3334 54.3037H19.394V56.2431H21.3334V54.3037Z" fill="white"/>
<path d="M23.2729 54.3037H21.3335V56.2431H23.2729V54.3037Z" fill="white"/>
<path d="M29.091 54.3037H27.1516V56.2431H29.091V54.3037Z" fill="white"/>
<path d="M31.0305 54.3037H29.0911V56.2431H31.0305V54.3037Z" fill="white"/>
<path d="M32.9699 54.3037H31.0305V56.2431H32.9699V54.3037Z" fill="white"/>
<path d="M34.9091 54.3037H32.9697V56.2431H34.9091V54.3037Z" fill="white"/>
<path d="M36.8486 54.3037H34.9092V56.2431H36.8486V54.3037Z" fill="white"/>
<path d="M38.788 54.3037H36.8486V56.2431H38.788V54.3037Z" fill="white"/>
<path d="M40.7275 54.3037H38.7881V56.2431H40.7275V54.3037Z" fill="white"/>
<path d="M42.6667 54.3037H40.7273V56.2431H42.6667V54.3037Z" fill="white"/>
<path d="M46.5456 54.3037H44.6062V56.2431H46.5456V54.3037Z" fill="white"/>
<path d="M50.4243 54.3037H48.4849V56.2431H50.4243V54.3037Z" fill="white"/>
<path d="M56.2426 54.3037H54.3032V56.2431H56.2426V54.3037Z" fill="white"/>
<path d="M60.1215 54.3037H58.1821V56.2431H60.1215V54.3037Z" fill="white"/>
<path d="M25.2123 56.2424H23.2729V58.1818H25.2123V56.2424Z" fill="white"/>
<path d="M27.1516 56.2424H25.2122V58.1818H27.1516V56.2424Z" fill="white"/>
<path d="M29.091 56.2424H27.1516V58.1818H29.091V56.2424Z" fill="white"/>
<path d="M36.8486 56.2424H34.9092V58.1818H36.8486V56.2424Z" fill="white"/>
<path d="M42.6667 56.2424H40.7273V58.1818H42.6667V56.2424Z" fill="white"/>
<path d="M44.6061 56.2424H42.6667V58.1818H44.6061V56.2424Z" fill="white"/>
<path d="M50.4243 56.2424H48.4849V58.1818H50.4243V56.2424Z" fill="white"/>
<path d="M54.3032 56.2424H52.3638V58.1818H54.3032V56.2424Z" fill="white"/>
<path d="M58.1818 56.2424H56.2424V58.1818H58.1818V56.2424Z" fill="white"/>
<path d="M21.3334 58.1819H19.394V60.1213H21.3334V58.1819Z" fill="white"/>
<path d="M23.2729 58.1819H21.3335V60.1213H23.2729V58.1819Z" fill="white"/>
<path d="M31.0305 58.1819H29.0911V60.1213H31.0305V58.1819Z" fill="white"/>
<path d="M34.9091 58.1819H32.9697V60.1213H34.9091V58.1819Z" fill="white"/>
<path d="M38.788 58.1819H36.8486V60.1213H38.788V58.1819Z" fill="white"/>
<path d="M42.6667 58.1819H40.7273V60.1213H42.6667V58.1819Z" fill="white"/>
<path d="M44.6061 58.1819H42.6667V60.1213H44.6061V58.1819Z" fill="white"/>
<path d="M54.3032 58.1819H52.3638V60.1213H54.3032V58.1819Z" fill="white"/>
<path d="M58.1818 58.1819H56.2424V60.1213H58.1818V58.1819Z" fill="white"/>
<path d="M15.4183 5.91504H5.91528V15.4181H15.4183V5.91504Z" fill="white"/>
<path d="M15.4183 3.87891H5.91527H3.87891V5.91527V15.4183V17.4547H5.91527H15.4183H17.4547V15.4183V5.91527V3.87891H15.4183ZM15.4183 15.4183H5.91527V5.91527H15.4183V15.4183Z" fill="white"/>
<path d="M58.0851 5.91504H48.582V15.4181H58.0851V5.91504Z" fill="white"/>
<path d="M58.085 3.87891H48.582H46.5457V5.91527V15.4183V17.4547H48.582H58.085H60.1214V15.4183V5.91527V3.87891H58.085ZM58.085 15.4183H48.582V5.91527H58.085V15.4183Z" fill="white"/>
<path d="M15.4183 48.5806H5.91528V58.0836H15.4183V48.5806Z" fill="white"/>
<path d="M15.4183 46.5442H5.91527H3.87891V48.5806V58.0836V60.1199H5.91527H15.4183H17.4547V58.0836V48.5806V46.5442H15.4183ZM15.4183 58.0836H5.91527V48.5806H15.4183V58.0836Z" fill="white"/>
<path d="M13.576 7.75757H7.75781V13.5758H13.576V7.75757Z" fill="#030F40"/>
<path d="M56.2425 7.75757H50.4243V13.5758H56.2425V7.75757Z" fill="#030F40"/>
<path d="M13.576 50.425H7.75781V56.2432H13.576V50.425Z" fill="#030F40"/>
</svg>
